<svg width="683" height="451" viewBox="0 0 683 451" fill="none" xmlns="http://www.w3.org/2000/svg">
<path d="M95.2528 686.603C43.6708 623.763 11.4819 547.518 2.54608 467.012C-6.38971 386.505 8.30695 305.154 44.8737 232.713C81.4404 160.273 138.325 99.8185 208.706 58.5995C279.087 17.3804 359.977 -2.85342 441.675 0.324249C523.373 3.50192 602.412 29.9563 669.314 76.515C736.216 123.074 788.14 187.76 818.86 262.818C849.58 337.875 857.792 420.118 842.512 499.682C827.231 579.247 789.106 652.757 732.709 711.397L730.798 709.593C786.845 651.317 824.733 578.264 839.919 499.194C855.104 420.123 846.943 338.392 816.414 263.8C785.884 189.209 734.283 124.924 667.797 78.6546C601.311 32.3851 522.762 6.09506 441.571 2.93716C360.38 -0.220795 279.993 19.8874 210.049 60.8504C140.106 101.813 83.5743 161.892 47.2347 233.883C10.8951 305.873 -3.71027 386.719 5.16998 466.726C14.0503 546.732 46.0392 622.504 97.3009 684.953L95.2528 686.603Z" fill="#D9D9D9"/>
</svg>
